<?xml version="1.0" encoding="UTF-8"?>
<svg width="95px" height="114px" viewBox="0 0 95 114" version="1.1" xmlns="http://www.w3.org/2000/svg" xmlns:xlink="http://www.w3.org/1999/xlink">
    <!-- Generator: Sketch 59.1 (86144) - https://sketch.com -->
    <title>Logo</title>
    <desc>Created with Sketch.</desc>
    <g id="Page-1" stroke="none" stroke-width="1" fill="none" fill-rule="evenodd">
        <g id="Desktop-HD-Copy-2" transform="translate(-655.000000, -38.000000)" fill="#000000">
            <g id="Logo" transform="translate(655.000000, 38.000000)">
                <g id="fukuoka-japan-flag-symbol-(2)" transform="translate(27.000000, 0.000000)" fill-rule="nonzero">
                    <path d="M20.8846705,12.7540282 C20.9294971,12.6932276 20.9738969,12.632427 21.0174427,12.5711858 C19.8425579,10.704431 19.1167932,8.85001259 19.1167932,7.70493454 C19.1167932,5.3469285 20.8360016,4.24899295 21.9980789,4.24899295 C23.1614369,4.24899295 24.881926,5.34736908 24.881926,7.70493454 C24.881926,9.10951662 23.7663831,11.6005791 22.168847,13.7642875 C21.112646,15.194864 19.9847223,16.3980992 19.1804044,17.1937941 C19.9578264,18.4296324 20.6584027,19.7082075 21.2667642,21 C22.3639496,19.9901813 23.9128168,18.4133308 25.4458878,16.336858 C27.1006312,14.0960473 29,11.0895015 29,7.70537513 C29,3.45638218 25.8591468,0 21.9985058,0 C18.1395725,0 15,3.45638218 15,7.70537513 C15,10.9000504 16.6760894,13.7140609 18.1997682,15.8451662 C19.2047388,14.8362286 20.1516482,13.7466641 20.8846705,12.7540282 Z" id="Path"></path>
                    <path d="M8.45003196,25 C8.45003196,25 8.45091048,25 8.45134974,25 C10.0972663,25 11.9101026,24.6448499 14.1371635,23.8829739 C13.66276,22.8885538 12.9472014,21.5141004 12.0612089,20.1957472 C12.0177219,20.1315035 11.9737957,20.0677123 11.9294302,20.0043734 C9.82711988,20.5843764 7.78323149,20.73458 6.71055248,20.3753582 C4.47646343,19.6279596 3.98053607,17.5468255 4.3490773,16.375509 C4.66622482,15.3702307 5.7815123,14.3531896 7.29916422,14.3531896 C7.70416424,14.3531896 8.12234213,14.424672 8.54271634,14.5649223 C9.8736817,15.0101041 11.8824291,16.9256522 13.426876,19.2230433 C14.2373153,20.4296486 15.0495117,21.8787513 15.727733,23.3233298 C17.1478686,22.9319861 18.5824999,22.6315789 20,22.4279897 C19.1777006,20.4997738 18.0865726,18.4896697 16.9071528,16.7360881 C15.3082373,14.3572613 13.0614096,11.4893681 9.8525971,10.415322 C9.0281014,10.1397979 8.18339962,10 7.34133342,10 C4.14130614,10 1.25403376,12.067109 0.32060096,15.027296 C-0.246047659,16.8247625 -0.0554077357,18.8651787 0.843762592,20.6259991 C1.78685917,22.4732318 3.40554146,23.8585432 5.40067172,24.5254109 C6.34332903,24.8393907 7.36944622,25 8.45003196,25 Z" id="Path"></path>
                    <path d="M21.4986139,28.3837606 C21.5766073,26.9044303 21.745073,25.4322122 22,24 C20.4726666,24.1529115 18.2269028,24.4911839 15.6976887,25.2486294 C12.9674745,26.0656394 9.57543064,27.3573863 7.56364694,30.1200178 C5.03799824,33.5876426 5.63565042,38.3314565 8.89621966,40.6944733 C10.0754797,41.547933 11.5020901,42 13.0222927,42 C15.5350167,42 17.8543172,40.79271 19.3874444,38.6879538 C21.2864719,36.0813454 21.5445186,32.7577419 21.5249089,30.085346 C20.4450347,30.2400356 18.9341914,30.5107423 17.4197826,30.9641428 C17.3458004,30.9868129 17.2722637,31.0094829 17.1987271,31.0325974 C17.0806228,33.2751519 16.5917157,35.2318862 15.9098307,36.1684694 C14.9248856,37.5206697 13.7050691,37.7224774 13.0650776,37.7224774 C12.4567292,37.7224774 11.8581857,37.5415617 11.422314,37.2264039 C10.86299,36.8210105 10.4529677,36.1213513 10.3255042,35.353682 C10.2189875,34.7104756 10.2564243,33.7169951 11.040815,32.6399467 C11.8751214,31.4939991 14.2996015,30.1440213 16.9353323,29.3554601 C18.6774817,28.8322714 20.3456488,28.5402282 21.4986139,28.3837606 Z" id="Path"></path>
                    <path d="M28.6168372,24.3439353 C28.4248916,25.4238261 28.2104452,26.9506916 28.17325,28.5325351 C28.1714132,28.6103086 28.1704948,28.6871883 28.1700356,28.7649619 C30.3360821,29.574433 32.1026246,30.6494072 32.8052006,31.5898419 C34.2498439,33.5243484 33.4269574,35.4834384 32.4162582,36.1990449 C31.9667014,36.5168439 31.3481589,36.6987626 30.7199733,36.6987626 C30.0601029,36.6987626 28.8028133,36.4962831 27.7884404,35.13748 C26.9283588,33.9842853 26.373186,31.251929 26.4383924,28.4940952 C26.481098,26.6713325 26.7249332,24.9898137 26.938002,23.8410887 C25.5052979,23.3051661 24.1134627,22.6870001 22.7914258,22 C22.3368178,24.0323939 22.0599202,26.2918509 22.0107858,28.3997836 C21.9437426,31.2572927 22.1333922,34.8934318 24.2066803,37.6709325 C25.7854099,39.7860167 28.175546,40.9991061 30.7631381,41 L30.7635973,41 C32.3322246,41 33.8030422,40.5454267 35.0194631,39.6867884 C36.5715591,38.5894655 37.6277192,36.8444763 37.9179336,34.8983485 C38.2210056,32.8583561 37.6786904,30.7830526 36.3897159,29.0563894 C34.4312279,26.4339889 31.2489717,25.1556413 28.6168372,24.3439353 Z" id="Path"></path>
                    <path d="M43.6592859,15.0230707 C42.7020032,12.0655026 39.7423105,10 36.4609708,10 C35.5969387,10 34.7297533,10.1397811 33.8841911,10.4152719 C30.77764,11.4290238 28.5873773,14.0106758 27.0120279,16.2218402 C28.3188877,16.9148647 29.6870135,17.5237492 30.8925139,17.9480684 C30.9668441,17.9738533 31.0398228,17.9991857 31.1128016,18.0236135 C32.5462479,16.2471727 34.1116866,14.9280738 35.2266393,14.5643717 C35.6586553,14.4232335 36.0879684,14.3522121 36.5046679,14.3522121 C38.0597455,14.3522121 39.2017273,15.3677735 39.5269782,16.371121 C39.9062874,17.5436533 39.3990402,19.6267982 37.1065172,20.3745589 C36.7028818,20.5061974 36.1789666,20.5726952 35.5491872,20.5726952 C34.0571778,20.5726952 32.1552261,20.2049217 30.329857,19.5621098 C28.5941346,18.9523206 27.056626,18.197322 26.0205083,17.6391025 C25.0731364,18.8138967 24.0590925,19.9253596 23,20.949516 C24.3397452,21.7352755 26.3772932,22.7956211 28.8968611,23.6813535 C30.5055465,24.2468108 32.9219531,24.9995476 35.3180879,25 C36.4285358,25 37.4822225,24.8398625 38.4494158,24.5236587 C42.5799215,23.1756084 44.9179436,18.9143219 43.6592859,15.0230707 Z" id="Path"></path>
                </g>
                <text id="Ossington-Sélect-Bis" font-family="Quattrocento-Bold, Quattrocento" font-size="13" font-weight="bold" letter-spacing="2.4375">
                    <tspan x="0.42225" y="79">OSSINGTON</tspan>
                    <tspan x="19.0935" y="96">SÉLECT</tspan>
                    <tspan x="18.8075" y="113">BISTRO</tspan>
                </text>
            </g>
        </g>
    </g>
</svg>